<svg width="16" height="16" viewBox="0 0 16 16" fill="none" xmlns="http://www.w3.org/2000/svg">
<path d="M1.80786 10.396C1.62706 9.8084 1.53646 9.1754 1.53646 8.5428C1.53646 5.7856 3.38987 3.4352 5.96606 2.6666V3.4352L9.35647 1.7176L5.96627 0V1.2204C2.66667 2.0792 0.180664 5.0172 0.180664 8.5428C0.180664 9.0398 0.226066 9.5372 0.316264 9.9892L0.406664 9.266L1.80786 10.396Z" fill="#808080"/>
<path d="M12.8814 9.6274L12.6554 13.4242L15.8196 11.3452L14.7804 10.7118C15.0062 10.0344 15.0964 9.3112 15.0964 8.5422C15.0964 5.2882 12.9722 2.5308 10.0794 1.4912L10.6668 1.8528L8.94922 2.576C11.7064 3.2088 13.7404 5.6496 13.7404 8.5422C13.7404 9.0396 13.65 9.5366 13.5596 9.9886L12.8814 9.6274Z" fill="#808080"/>
<path d="M12.1584 12.6558C11.028 13.8764 9.44662 14.6448 7.63862 14.6448C6.01162 14.6448 4.51982 13.9666 3.43502 12.9272L4.11302 12.5654L0.949219 10.4862L1.17502 14.283L2.21462 13.65C3.57062 15.0964 5.51442 16 7.63862 16C9.49202 16 11.1646 15.3224 12.475 14.1922L11.7972 14.4634L12.1584 12.6558Z" fill="#808080"/>
<path d="M11.4803 11.526C11.3901 11.3452 11.2995 11.3452 11.1643 11.3002C10.4863 11.029 9.89887 10.9384 9.26587 10.7126C9.22026 10.6672 9.03966 10.577 9.03966 10.2608C9.03966 10.125 8.99467 10.035 8.85886 10.035C8.81366 10.035 8.81366 10.035 8.81366 9.94442C8.76826 9.62842 8.76826 9.49282 8.76826 9.44742C8.76826 9.40181 8.81366 9.35722 8.81366 9.35722C9.03946 9.04082 9.08486 8.67902 9.13006 8.45322C9.13006 8.45322 9.17526 8.49882 9.21986 8.36302C9.26566 8.22742 9.26566 8.18222 9.31026 8.00162C9.35546 7.86602 9.35546 7.64002 9.21986 7.64002C9.13006 7.68542 9.13006 7.64002 9.13006 7.54942V6.69062C9.08426 6.37462 8.90386 6.19362 8.76826 6.10302C8.54246 5.96742 8.49666 5.92222 8.40686 5.83182C8.31626 5.74162 8.31626 5.65102 8.40686 5.56062C8.45206 5.51522 8.54246 5.47042 8.58766 5.42502H8.54246C8.49666 5.42502 8.00006 5.51522 7.81926 5.56062C7.45766 5.65082 7.09606 5.78642 6.77966 6.01262C6.55366 6.19342 6.41806 6.37402 6.37286 6.64522C6.37286 6.78122 6.37286 7.27822 6.37286 7.50442C6.37286 7.54942 6.37286 7.64002 6.28246 7.59462C6.10166 7.54902 6.19206 7.91082 6.19206 7.95602C6.23746 8.09182 6.28246 8.18222 6.32766 8.31762C6.37306 8.40782 6.41806 8.40782 6.41806 8.40782C6.46326 8.63402 6.55366 9.04082 6.73446 9.31182C6.77966 9.35722 6.77966 9.40181 6.77966 9.44742C6.73446 9.58302 6.73446 9.76321 6.73446 9.89942C6.73446 9.94442 6.68906 9.98942 6.64406 9.98942C6.50846 9.98942 6.46326 10.0796 6.46326 10.2152C6.46326 10.4414 6.32766 10.6226 6.23746 10.6672C5.92106 10.8028 4.74566 11.1646 4.38406 11.2546C4.11286 11.3448 4.06786 11.4354 4.02246 11.526V11.9778C5.46886 11.9778 10.3957 11.9778 11.4805 11.9778L11.4803 11.526Z" fill="#808080"/>
</svg>
