<svg width="15" height="15" viewBox="0 0 15 15" fill="none" xmlns="http://www.w3.org/2000/svg">
<path fill-rule="evenodd" clip-rule="evenodd" d="M0.301628 7.30796C1.5904 7.5763 3.26307 7.81482 5.31962 7.90427C5.31962 7.00982 5.97772 6.32407 6.77292 6.32407H7.89717C8.69237 6.32407 9.35047 7.03963 9.35047 7.90427C11.3796 7.81482 13.0523 7.5763 14.341 7.30796C14.5056 7.27815 14.6427 7.09926 14.6427 6.89055V4.68424C14.6427 3.87923 14.0394 3.25311 13.3265 3.25311H10.4199V2.20958C10.4199 1.07661 9.56984 0.152344 8.52785 0.152344H6.11482C5.07284 0.152344 4.22279 1.07661 4.22279 2.20958V3.25311H1.31619C0.575835 3.25311 0 3.87923 0 4.68424V6.89055C0 7.09926 0.137103 7.27815 0.301628 7.30796ZM5.73093 2.20958C5.73093 1.97107 5.92288 1.79218 6.14224 1.79218H8.55527C8.77463 1.79218 8.93916 2.00088 8.93916 2.20958V3.25311H5.73093V2.20958ZM0.959961 8.58969V13.0023C0.959961 13.8074 1.5358 14.4335 2.27616 14.4335H12.3944C13.1348 14.4335 13.7106 13.8074 13.7106 13.0023V8.58969C12.2847 8.82821 10.7492 8.97729 9.37813 9.03692V9.12637C9.37813 10.0208 8.72003 10.7364 7.92483 10.7364H6.80058C5.97796 10.7364 5.34728 10.0208 5.34728 9.12637V9.03692C3.9214 8.97729 2.38584 8.82821 0.959961 8.58969ZM8.33562 9.12638C8.33562 9.39472 8.14367 9.60342 7.89689 9.60342H6.80006C6.55327 9.60342 6.36133 9.39472 6.36133 9.12638V7.93377C6.36133 7.66543 6.55327 7.45673 6.80006 7.45673H7.89689C8.14367 7.45673 8.33562 7.66543 8.33562 7.93377V9.12638Z" fill="#808080"/>
</svg>
