<svg width="24" height="24" viewBox="0 0 24 24" fill="none" xmlns="http://www.w3.org/2000/svg">
<path fill-rule="evenodd" clip-rule="evenodd" d="M7.16602 4.33268C7.16602 3.41221 7.91221 2.66602 8.83268 2.66602H17.166C18.0865 2.66602 18.8327 3.41221 18.8327 4.33268V18.4994C18.8327 18.8067 18.6635 19.0891 18.3926 19.2341C18.1216 19.3791 17.7928 19.3632 17.5371 19.1927L12.9993 16.1676L8.4616 19.1927C8.20589 19.3632 7.8771 19.3791 7.60613 19.2341C7.33517 19.0891 7.16602 18.8067 7.16602 18.4994V4.33268ZM17.166 4.33268L8.83268 4.33268V16.9423L12.5371 14.4726C12.817 14.286 13.1817 14.286 13.4616 14.4726L17.166 16.9423V4.33268Z" fill="#808080"/>
</svg>
