<svg width="18" height="21" viewBox="0 0 18 21" fill="none" xmlns="http://www.w3.org/2000/svg">
<path d="M15.0507 16.133L15.0507 16.133C15.4498 16.5673 15.65 17.0967 15.65 17.6932C15.65 18.2805 15.4445 18.7994 15.0418 19.2243C14.6556 19.6576 14.1567 19.8844 13.5768 19.8844C12.9943 19.8844 12.491 19.6559 12.094 19.2245L12.0873 19.2172L12.0874 19.2171C11.7034 18.7829 11.5036 18.2685 11.5036 17.6932C11.5036 17.0996 11.6987 16.5726 12.0939 16.1429L12.094 16.1428C12.1493 16.0827 12.2067 16.0265 12.266 15.9744H7.34286C7.40191 16.028 7.45864 16.086 7.51294 16.1483C7.90523 16.5771 8.09856 17.1024 8.09856 17.6932C8.09856 18.2829 7.90596 18.8042 7.50969 19.2226C7.12562 19.6612 6.6208 19.8844 6.03418 19.8844C5.45212 19.8844 4.94832 19.656 4.55153 19.2243L4.54502 19.2172L4.54509 19.2171C4.16131 18.7831 3.961 18.2688 3.961 17.6932C3.961 17.0994 4.15655 16.5725 4.55153 16.143L15.0507 16.133ZM15.0507 16.133L15.047 16.1291C14.9954 16.0742 14.9421 16.0226 14.8871 15.9744H15.177H15.6306L15.6746 15.5229L16.6363 5.67015L16.6899 5.12157H16.1387H4.69936L4.38352 1.85905L4.33978 1.40723H3.88585H1H0.5V1.90723V2.88469V3.38469H1H2.61516L2.79392 5.17045H2.78634L2.83965 5.71883L3.79272 15.5227L3.83663 15.9744H4.29038H4.72363M15.0507 16.133L4.72363 15.9744M4.72363 15.9744C4.66427 16.0266 4.60691 16.0827 4.55163 16.1429L4.72363 15.9744ZM13.4024 17.6932C13.4024 17.6121 13.4226 17.554 13.4629 17.5009C13.4953 17.4712 13.5257 17.4601 13.5766 17.4601C13.633 17.4601 13.6486 17.4729 13.6678 17.4948L13.6677 17.4949L13.6763 17.5043C13.7298 17.5624 13.7509 17.6176 13.7509 17.6932C13.7509 17.7471 13.7362 17.798 13.6763 17.863L13.6761 17.8632C13.6449 17.8972 13.6224 17.9069 13.5766 17.9069C13.5384 17.9069 13.5104 17.8993 13.4682 17.8534L13.4683 17.8533L13.4603 17.8451C13.4211 17.8043 13.4024 17.7635 13.4024 17.6932ZM5.92612 17.8534L5.92623 17.8533L5.91777 17.8446C5.87858 17.804 5.85996 17.7634 5.85996 17.6932C5.85996 17.6126 5.88022 17.5543 5.92096 17.5007C5.95279 17.4714 5.9833 17.4601 6.03418 17.4601C6.06756 17.4601 6.08853 17.4642 6.1034 17.4708L6.13421 17.5043C6.17452 17.5481 6.19977 17.6004 6.19977 17.6932C6.19977 17.7405 6.19208 17.7751 6.17782 17.8038L6.17544 17.8051L6.11655 17.8724C6.10019 17.8911 6.08935 17.8969 6.08409 17.8992C6.07853 17.9017 6.0644 17.9069 6.03418 17.9069C5.9962 17.9069 5.96851 17.8995 5.92612 17.8534Z" fill="white" stroke="#808080"/>
</svg>
