<svg width="68" height="68" viewBox="0 0 68 68" fill="none" xmlns="http://www.w3.org/2000/svg">
<rect width="67.037" height="67.037" rx="33.5185" fill="#FFAD08"/>
<path d="M49.1527 47.6383C52.2489 43.6903 53.938 38.7343 53.938 33.4785C53.938 20.9008 44.126 10.7683 32.3899 11.6602C22.4832 12.4131 14.4583 21.1411 13.7661 31.9157C12.9619 44.4341 21.9073 54.9398 33.1613 55.3397C33.5255 55.3527 33.8269 55.0285 33.8269 54.6322V52.5292L32.8449 51.6719C23.8421 51.2955 16.4436 42.371 17.0153 32.3531C17.5166 23.5688 24.4932 15.5628 32.57 15.0174C41.9961 14.381 50.6385 23.3639 50.6385 33.4785C50.6385 37.7461 49.0819 41.9566 46.763 45.0074L43.5875 49.2986L43.4523 50.2031C43.3792 50.6924 43.7805 51.1089 44.2264 51.0068L49.7153 49.7496C50.2261 49.6326 50.4072 48.9408 50.0295 48.5488L49.1527 47.6383Z" fill="white"/>
<path d="M33.2117 50.5934C24.4654 50.2278 17.5469 42.1106 18.1023 32.3807C18.5894 23.8489 24.9755 16.905 32.8222 16.3754C41.9797 15.7572 49.5841 23.6499 49.5841 33.4738C49.5841 37.6187 48.2281 41.4176 45.9752 44.3807L45.1105 43.4832C44.7437 43.1025 44.1346 43.3247 44.0533 43.8689L43.3102 48.839C47.8543 45.5168 50.8447 39.8753 50.8447 33.4738C50.8447 23.2548 43.2259 14.9707 33.8277 14.9707C24.4294 14.9707 16.8105 23.2549 16.8105 33.4738C16.8105 43.6928 24.4293 51.9769 33.8276 51.9769V51.5304C33.8276 50.9015 33.5536 50.6077 33.2117 50.5934Z" fill="white"/>
</svg>
