<svg width="68" height="68" viewBox="0 0 68 68" fill="none" xmlns="http://www.w3.org/2000/svg">
<rect width="67.037" height="67.037" rx="33.5185" fill="#F73C41"/>
<path fill-rule="evenodd" clip-rule="evenodd" d="M35.7537 24.5811C36.9878 24.5811 37.9883 25.5815 37.9883 26.8156V35.7539C37.9883 36.988 36.9878 37.9885 35.7537 37.9885H29.05C27.8159 37.9885 26.8154 36.988 26.8154 35.7539C26.8154 34.5198 27.8159 33.5193 29.05 33.5193H33.5191V26.8156C33.5191 25.5815 34.5196 24.5811 35.7537 24.5811Z" fill="white"/>
<path fill-rule="evenodd" clip-rule="evenodd" d="M33.5185 15.642C23.6456 15.642 15.642 23.6456 15.642 33.5185C15.642 43.3915 23.6456 51.3951 33.5185 51.3951C43.3915 51.3951 51.3951 43.3915 51.3951 33.5185C51.3951 23.6456 43.3915 15.642 33.5185 15.642ZM11.1729 33.5185C11.1729 21.1774 21.1774 11.1729 33.5185 11.1729C45.8597 11.1729 55.8642 21.1774 55.8642 33.5185C55.8642 45.8597 45.8597 55.8642 33.5185 55.8642C21.1774 55.8642 11.1729 45.8597 11.1729 33.5185Z" fill="white"/>
</svg>
