<svg width="16" height="16" viewBox="0 0 16 16" fill="none" xmlns="http://www.w3.org/2000/svg">
<path d="M7 4.99976V3.99976H1C0.449 3.99976 0 4.44876 0 4.99976V6.99976H7.211C7.072 6.38876 7 5.73076 7 4.99976Z" fill="#808080"/>
<path d="M15.959 8.99976C15.277 10.0508 14.237 10.9448 12.747 11.8008C12.518 11.9318 12.26 11.9998 12 11.9998C11.74 11.9998 11.482 11.9318 11.256 11.8028C9.766 10.9448 8.726 10.0498 8.043 8.99976H0V13.9998C0 14.5518 0.449 14.9998 1 14.9998H15C15.552 14.9998 16 14.5518 16 13.9998V8.99976H15.959ZM4.5 11.9998H2.5C2.224 11.9998 2 11.7758 2 11.4998C2 11.2238 2.224 10.9998 2.5 10.9998H4.5C4.776 10.9998 5 11.2238 5 11.4998C5 11.7758 4.776 11.9998 4.5 11.9998Z" fill="#808080"/>
<path d="M15.697 2.54076L12.197 1.04076C12.07 0.986759 11.929 0.986759 11.802 1.04076L8.302 2.54076C8.119 2.61876 8 2.79976 8 2.99976V4.99976C8 7.75076 9.017 9.35876 11.751 10.9338C11.828 10.9778 11.914 10.9998 12 10.9998C12.086 10.9998 12.172 10.9778 12.249 10.9338C14.983 9.36276 16 7.75476 16 4.99976V2.99976C16 2.79976 15.881 2.61876 15.697 2.54076ZM13.891 4.81276L11.891 7.31276C11.795 7.43076 11.651 7.49976 11.5 7.49976C11.493 7.49976 11.485 7.49976 11.479 7.49976C11.32 7.49276 11.173 7.41076 11.084 7.27776L10.084 5.77776C9.931 5.54776 9.993 5.23776 10.223 5.08476C10.451 4.93276 10.762 4.99276 10.916 5.22376L11.537 6.15476L13.109 4.18876C13.282 3.97376 13.597 3.93976 13.812 4.11076C14.028 4.28176 14.062 4.59676 13.891 4.81276Z" fill="#808080"/>
</svg>
