<svg width="31" height="31" viewBox="0 0 31 31" fill="none" xmlns="http://www.w3.org/2000/svg">
<g clip-path="url(#clip0_2240_1892)">
<path d="M15.4285 0C6.92127 0 0 6.87855 0 15.3333C0 23.7874 6.92127 30.6666 15.4285 30.6666C23.9352 30.6666 30.8571 23.7874 30.8571 15.3333C30.8571 6.87855 23.9364 0 15.4285 0ZM19.2655 15.8731H16.7554C16.7554 19.8587 16.7554 24.7645 16.7554 24.7645H13.0359C13.0359 24.7645 13.0359 19.9062 13.0359 15.8731H11.2678V12.7306H13.0359V10.698C13.0359 9.24222 13.7319 6.96748 16.7895 6.96748L19.5457 6.97798V10.0285C19.5457 10.0285 17.8709 10.0285 17.5452 10.0285C17.2196 10.0285 16.7566 10.1903 16.7566 10.8845V12.7312H19.5905L19.2655 15.8731Z" fill="#808080"/>
</g>
<defs>
<clipPath id="clip0_2240_1892">
<rect width="30.8571" height="30.6666" fill="white"/>
</clipPath>
</defs>
</svg>
