<svg width="24" height="25" viewBox="0 0 24 25" fill="none" xmlns="http://www.w3.org/2000/svg">
<path fill-rule="evenodd" clip-rule="evenodd" d="M15.4694 19.6087H17.3213V16.167H18.9997V14.0615H17.3213V11.9542H18.9997V9.84863H17.3213V5.6377H15.4886V9.84863H11.1822L8.43591 5.6377H6.58398V9.84863H4.96289V11.9542H6.58398V14.0615H4.96289V16.167H6.58398V19.6087H8.43591V16.167H13.221L15.4694 19.6087ZM15.3029 16.167L15.4886 16.4518V16.167H15.3029ZM15.4886 14.0615H13.9297L12.5553 11.9542H15.4886V14.0615ZM10.4687 11.9542L11.8454 14.0615H8.43591V11.9542H10.4687ZM9.09316 9.84863L8.43591 8.84258V9.84863H9.09316Z" fill="#808080"/>
</svg>
