<svg width="16" height="15" viewBox="0 0 16 15" fill="none" xmlns="http://www.w3.org/2000/svg">
<path d="M11.0634 0.791077H1.80938C0.811563 0.791077 0 1.60264 0 2.60045V10.7098C0 11.0939 0.434344 11.3104 0.740937 11.0914L3.31813 9.25264C3.53437 9.09858 3.78875 9.01701 4.05438 9.01701H9.72281C10.7206 9.01701 11.5322 8.20545 11.5322 7.20764V1.25983C11.5322 1.00108 11.3222 0.791077 11.0634 0.791077ZM8.78656 6.46951H3.37063C3.11188 6.46951 2.90188 6.25983 2.90188 6.00076C2.90188 5.74201 3.11188 5.53201 3.37063 5.53201H8.78656C9.04531 5.53201 9.25531 5.74201 9.25531 6.00076C9.25531 6.25983 9.04531 6.46951 8.78656 6.46951ZM8.78656 4.28201H3.37063C3.11188 4.28201 2.90188 4.07233 2.90188 3.81326C2.90188 3.55451 3.11188 3.34451 3.37063 3.34451H8.78656C9.04531 3.34451 9.25531 3.55451 9.25531 3.81326C9.25531 4.07233 9.04531 4.28201 8.78656 4.28201Z" fill="#808080"/>
<path d="M16 6.23639V14.3454C16 14.7269 15.5678 14.9476 15.259 14.727L12.6818 12.8886C12.4656 12.7345 12.2112 12.6529 11.9456 12.6529H6.27715C5.27934 12.6529 4.46777 11.8411 4.46777 10.8433V9.95451H9.72277C11.2375 9.95451 12.4696 8.72232 12.4696 7.20764V4.4267H14.1906C15.1884 4.4267 16 5.23858 16 6.23639Z" fill="#808080"/>
</svg>
