<svg width="24" height="24" viewBox="0 0 24 24" fill="none" xmlns="http://www.w3.org/2000/svg">
<path fill-rule="evenodd" clip-rule="evenodd" d="M9.62435 6.16667C7.79662 6.16667 6.33268 7.62732 6.33268 9.40741C6.33268 10.2744 6.67754 11.062 7.24391 11.6457L12.9992 17.4799L18.6502 11.7493C18.6559 11.7435 18.6617 11.7378 18.6676 11.7322C19.2857 11.1411 19.666 10.3178 19.666 9.40741C19.666 7.62733 18.2021 6.16667 16.3743 6.16667C15.9776 6.16667 15.513 6.3889 14.9962 6.84671C14.4924 7.29293 14.0412 7.87186 13.6779 8.38151C13.5215 8.60084 13.2687 8.73105 12.9993 8.73105C12.73 8.73105 12.4772 8.60084 12.3208 8.38151C11.9574 7.87186 11.5063 7.29293 11.0025 6.84671C10.4857 6.3889 10.0211 6.16667 9.62435 6.16667ZM4.66602 9.40741C4.66602 6.68739 6.89573 4.5 9.62435 4.5C10.6227 4.5 11.4724 5.03645 12.1076 5.59908C12.4347 5.8888 12.7339 6.21136 12.9993 6.5289C13.2648 6.21136 13.564 5.8888 13.8911 5.59908C14.5263 5.03646 15.376 4.5 16.3743 4.5C19.103 4.5 21.3327 6.68739 21.3327 9.40741C21.3327 10.7899 20.7541 12.0383 19.8288 12.9279L13.5927 19.2518C13.4361 19.4106 13.2224 19.5 12.9994 19.5C12.7764 19.5 12.5627 19.4107 12.4061 19.2519L6.05083 12.8095C5.19511 11.9292 4.66602 10.7293 4.66602 9.40741Z" fill="#808080"/>
</svg>
