<svg width="24" height="24" viewBox="0 0 24 24" fill="none" xmlns="http://www.w3.org/2000/svg">
<path d="M19.3425 19.0774H14.2313C14.145 19.0771 14.0596 19.0599 13.98 19.0266C13.9004 18.9933 13.8281 18.9447 13.7673 18.8834C13.7065 18.8222 13.6584 18.7495 13.6257 18.6697C13.593 18.5898 13.5763 18.5043 13.5767 18.418V14.0544C13.436 13.765 13.2148 13.5223 12.9396 13.3554C12.6644 13.1886 12.3469 13.1047 12.0252 13.1138H11.9767C11.6523 13.1043 11.3321 13.1897 11.0555 13.3596C10.7788 13.5294 10.5578 13.7763 10.4194 14.0699V18.4199C10.4191 18.5937 10.35 18.7603 10.2271 18.8832C10.1042 19.0061 9.93765 19.0752 9.76388 19.0755H4.65551C4.48174 19.0752 4.31516 19.0061 4.19228 18.8832C4.0694 18.7603 4.00026 18.5937 4 18.4199V11.9986C4.00004 11.9124 4.01721 11.827 4.0505 11.7474C4.08379 11.6678 4.13255 11.5957 4.19394 11.5351L11.5404 4.19159C11.6634 4.0689 11.8301 4 12.0039 4C12.1776 4 12.3443 4.0689 12.4674 4.19159L19.8061 11.5332C19.8674 11.5937 19.9162 11.6659 19.9495 11.7455C19.9828 11.825 20 11.9104 20 11.9967V18.418C20.0004 18.5045 19.9836 18.5903 19.9508 18.6704C19.9179 18.7504 19.8695 18.8232 19.8084 18.8844C19.7473 18.9457 19.6747 18.9943 19.5947 19.0274C19.5148 19.0605 19.4291 19.0775 19.3425 19.0774Z" fill="#808080"/>
</svg>
