<svg width="31" height="31" viewBox="0 0 31 31" fill="none" xmlns="http://www.w3.org/2000/svg">
<g clip-path="url(#clip0_2240_1880)">
<path d="M15.5699 18.4029C17.2721 18.4029 18.6598 17.0262 18.6598 15.3333C18.6598 14.665 18.4398 14.048 18.0756 13.544C17.5144 12.7707 16.6021 12.2637 15.5717 12.2637C14.5407 12.2637 13.629 12.7701 13.0666 13.5434C12.7012 14.0474 12.483 14.6644 12.4824 15.3327C12.4806 17.0256 13.8671 18.4029 15.5699 18.4029Z" fill="#808080"/>
<path d="M22.3148 11.579V9.00598V8.62305L21.9276 8.62428L19.3398 8.63231L19.3498 11.5889L22.3148 11.579Z" fill="#808080"/>
<path d="M15.5711 0C7.06385 0 0.142578 6.87855 0.142578 15.3333C0.142578 23.7874 7.06385 30.6666 15.5711 30.6666C24.0777 30.6666 30.9996 23.7874 30.9996 15.3333C30.9996 6.87855 24.079 0 15.5711 0ZM24.3456 13.544V20.6838C24.3456 22.5435 22.8242 24.0548 20.9542 24.0548H10.188C8.31735 24.0548 6.79662 22.5435 6.79662 20.6838V13.544V9.98399C6.79662 8.12492 8.31735 6.61358 10.188 6.61358H20.9536C22.8242 6.61358 24.3456 8.12492 24.3456 9.98399V13.544Z" fill="#808080"/>
<path d="M20.3709 15.3322C20.3709 17.9615 18.2181 20.1022 15.5713 20.1022C12.9245 20.1022 10.7723 17.9615 10.7723 15.3322C10.7723 14.6998 10.8991 14.0951 11.1253 13.543H8.50586V20.6828C8.50586 21.6055 9.2597 22.3528 10.1875 22.3528H20.9532C21.8798 22.3528 22.6349 21.6055 22.6349 20.6828V13.543H20.0142C20.2423 14.0951 20.3709 14.6998 20.3709 15.3322Z" fill="#808080"/>
</g>
<defs>
<clipPath id="clip0_2240_1880">
<rect width="30.8571" height="30.6666" fill="white" transform="translate(0.142578)"/>
</clipPath>
</defs>
</svg>
