<svg width="16" height="20" viewBox="0 0 16 20" fill="none" xmlns="http://www.w3.org/2000/svg">
<path fill-rule="evenodd" clip-rule="evenodd" d="M5.26608 4.96452C6.13595 5.14564 7.26492 5.30663 8.653 5.367C8.653 4.76328 9.09719 4.30043 9.63391 4.30043H10.3927C10.9295 4.30043 11.3736 4.78341 11.3736 5.367C12.7432 5.30663 13.8722 5.14564 14.742 4.96452C14.8531 4.9444 14.9456 4.82366 14.9456 4.68279V3.19361C14.9456 2.65027 14.5385 2.22766 14.0573 2.22766H12.0954V1.52332C12.0954 0.758609 11.5217 0.134766 10.8184 0.134766H9.18973C8.48643 0.134766 7.91269 0.758609 7.91269 1.52332V2.22766H5.95087C5.45116 2.22766 5.0625 2.65027 5.0625 3.19361V4.68279C5.0625 4.82366 5.15504 4.9444 5.26608 4.96452ZM8.93062 1.52332C8.93062 1.36233 9.06017 1.24159 9.20823 1.24159H10.8369C10.985 1.24159 11.096 1.38245 11.096 1.52332V2.22766H8.93062V1.52332ZM5.70898 8.80883V5.83047C6.67139 5.99147 7.70782 6.09209 8.67022 6.13233V6.19271C8.67022 6.79643 9.0959 7.2794 9.65113 7.2794H10.4099C10.9467 7.2794 11.3909 6.79643 11.3909 6.19271V6.13233C12.3162 6.09209 13.3527 5.99147 14.3151 5.83047V8.80883C14.3151 9.35218 13.9264 9.77478 13.4267 9.77478H6.59736C6.09765 9.77478 5.70898 9.35218 5.70898 8.80883ZM14.8154 11.344C14.6118 11.1025 14.2786 11.022 13.9825 11.1226L11.5395 11.9879V12.1892C11.521 12.9338 11.0213 13.5777 10.355 13.7387L10.2069 13.779C9.31855 14.0003 8.41167 14.1211 7.50479 14.1814L6.76448 14.2217C6.54239 14.2418 6.3388 14.0406 6.3388 13.7991C6.3203 13.5576 6.50537 13.3362 6.72747 13.3362L7.46778 13.296C8.33764 13.2557 9.189 13.1149 10.0404 12.9136L10.1884 12.8734C10.503 12.7929 10.7251 12.5111 10.7251 12.169C10.7251 11.9678 10.6696 11.7666 10.5401 11.6257C10.4105 11.4848 10.2439 11.4043 10.0589 11.3842L6.15373 11.2836C5.72805 11.2635 5.28386 11.4245 4.93222 11.7062L1.69336 14.2821L5.09879 16.9988L8.39316 17.3006C8.9669 17.361 9.54064 17.1598 9.98483 16.7774L14.7413 12.6319C14.9264 12.4709 15.0189 12.2495 15.0374 12.008C15.056 11.7666 14.9819 11.5251 14.8154 11.344ZM0.0645674 16.4949C-0.0464792 16.6559 -0.00946357 16.8974 0.138599 17.0181L2.82222 19.1714C2.97029 19.2921 3.19238 19.2519 3.30343 19.0909L4.35837 17.5413L1.11951 14.9453L0.0645674 16.4949ZM10.688 6.19184C10.688 6.37296 10.5585 6.51382 10.3919 6.51382H9.65159C9.48502 6.51382 9.35547 6.37296 9.35547 6.19184V5.38689C9.35547 5.20578 9.48502 5.06491 9.65159 5.06491H10.3919C10.5585 5.06491 10.688 5.20578 10.688 5.38689V6.19184Z" fill="#808080"/>
</svg>
