<svg width="14" height="16" viewBox="0 0 14 16" fill="none" xmlns="http://www.w3.org/2000/svg">
<path fill-rule="evenodd" clip-rule="evenodd" d="M7.77802 7.66947V0.680249C7.77802 -0.22675 6.22254 -0.22675 6.22254 0.680249V7.66947C6.22254 8.57647 7.77802 8.57647 7.77802 7.66947ZM9.06537 3.18746C11.1036 4.04111 12.4445 5.90846 12.4445 8.20264C12.4445 11.1904 9.9772 13.5913 7.02715 13.5913C4.02347 13.5913 1.55615 11.1904 1.55615 8.20264C1.55615 5.90846 2.95072 4.04111 4.9353 3.18746C5.7935 2.86734 5.25712 1.37346 4.34529 1.74693C1.7707 2.81399 0.000671932 5.21487 0.000671932 8.14928C-0.0529653 11.9907 3.11163 15.1385 6.97352 15.1385C10.889 15.1385 14 12.044 14 8.20264C14 5.26823 12.2836 2.86734 9.65538 1.74693C8.79718 1.37346 8.26081 2.86734 9.06537 3.18746Z" fill="#FF0000"/>
</svg>
