<svg width="16" height="16" viewBox="0 0 16 16" fill="none" xmlns="http://www.w3.org/2000/svg">
<path d="M10.8125 0H5.1875C4.41206 0 3.78125 0.630813 3.78125 1.40625V4.28125C3.78125 5.05669 4.41206 5.6875 5.1875 5.6875H10.8125C11.5879 5.6875 12.2188 5.05669 12.2188 4.28125V1.40625C12.2188 0.630813 11.5879 0 10.8125 0Z" fill="#808080"/>
<path d="M15.0625 11.3125H14.125V10.8438C14.125 10.0683 13.4942 9.4375 12.7188 9.4375H8.46875V8.49687C8.557 8.49687 9.79175 8.49687 9.875 8.49687C10.1341 8.49687 10.3438 8.29034 10.3438 8.03125C10.3438 7.77216 10.1341 7.5625 9.875 7.5625H9.40625V6.625H6.59375V7.5625H6.125C5.86591 7.5625 5.65625 7.77216 5.65625 8.03125C5.65625 8.29034 5.86591 8.49687 6.125 8.49687C6.21325 8.49687 7.448 8.49687 7.53125 8.49687V9.4375H3.28125C2.50581 9.4375 1.875 10.0683 1.875 10.8438V11.3125H0.9375C0.419719 11.3125 0 11.7322 0 12.25V13.1875C0 13.7052 0.419719 14.125 0.9375 14.125H1.875V15.0625H1.40625C1.14716 15.0625 0.9375 15.2722 0.9375 15.5312C0.9375 15.7903 1.14716 16 1.40625 16H3.28125C3.54034 16 3.75 15.7903 3.75 15.5312C3.75 15.2722 3.54034 15.0625 3.28125 15.0625H2.8125V14.125H3.75C4.26778 14.125 4.6875 13.7052 4.6875 13.1875V12.25C4.6875 11.7322 4.26778 11.3125 3.75 11.3125H2.8125V10.8438C2.8125 10.5851 3.02262 10.375 3.28125 10.375H7.53125V11.3125H6.59375C6.07597 11.3125 5.65625 11.7322 5.65625 12.25V13.1875C5.65625 13.7052 6.07597 14.125 6.59375 14.125H7.53125V15.0625H7.0625C6.80341 15.0625 6.59375 15.2722 6.59375 15.5312C6.59375 15.7903 6.80341 16 7.0625 16H8.9375C9.19659 16 9.40625 15.7903 9.40625 15.5312C9.40625 15.2722 9.19659 15.0625 8.9375 15.0625H8.46875V14.125H9.40625C9.92403 14.125 10.3438 13.7052 10.3438 13.1875V12.25C10.3438 11.7322 9.92403 11.3125 9.40625 11.3125H8.46875V10.375H12.7188C12.9774 10.375 13.1875 10.5851 13.1875 10.8438V11.3125H12.25C11.7322 11.3125 11.3125 11.7322 11.3125 12.25V13.1875C11.3125 13.7052 11.7322 14.125 12.25 14.125H13.1875V15.0625H12.7188C12.4597 15.0625 12.25 15.2722 12.25 15.5312C12.25 15.7903 12.4597 16 12.7188 16H14.5938C14.8528 16 15.0625 15.7903 15.0625 15.5312C15.0625 15.2722 14.8528 15.0625 14.5938 15.0625H14.125V14.125H15.0625C15.5803 14.125 16 13.7052 16 13.1875V12.25C16 11.7322 15.5803 11.3125 15.0625 11.3125Z" fill="#808080"/>
</svg>
