<svg width="16" height="16" viewBox="0 0 16 16" fill="none" xmlns="http://www.w3.org/2000/svg">
<path d="M7.32337 16C8.53076 16 9.54077 15.1393 9.77271 14H4.87402C5.10608 15.1393 6.11609 16 7.32337 16Z" fill="#808080"/>
<path d="M11.998 7.99939C11.9953 7.99939 11.9926 8 11.9899 8C9.41729 8 7.32329 5.90662 7.32329 3.33337C7.32329 2.62598 7.48601 1.95728 7.76934 1.35596C7.62261 1.34204 7.47393 1.33337 7.32329 1.33337C4.74602 1.33337 2.65667 3.42261 2.65667 6V7.85864C2.65667 9.17798 2.07866 10.4233 1.06462 11.2806C0.726611 11.5693 0.576587 12.0293 0.697925 12.478C0.839282 13 1.35527 13.3334 1.89666 13.3334H12.7466C13.3146 13.3334 13.85 12.9653 13.9653 12.4087C14.0546 11.978 13.9013 11.548 13.5673 11.2673C12.598 10.4547 12.0373 9.26062 11.998 7.99939Z" fill="#808080"/>
<path d="M15.3229 3.33337C15.3229 5.17432 13.8306 6.66663 11.9895 6.66663C10.1486 6.66663 8.65625 5.17432 8.65625 3.33337C8.65625 1.49243 10.1486 0 11.9895 0C13.8306 0 15.3229 1.49243 15.3229 3.33337Z" fill="#808080"/>
</svg>
