<svg width="24" height="25" viewBox="0 0 24 25" fill="none" xmlns="http://www.w3.org/2000/svg">
<path fill-rule="evenodd" clip-rule="evenodd" d="M12.3429 4.69037C12.2168 4.8655 12.1667 5.10069 12.1667 5.24512V6.07845H10.5V5.24512C10.5 4.83399 10.6165 4.23584 10.9904 3.71653C11.3949 3.15473 12.0617 2.74512 13 2.74512C13.9383 2.74512 14.6051 3.15473 15.0096 3.71653C15.3835 4.23584 15.5 4.83399 15.5 5.24512V6.07845H13.8333V5.24512C13.8333 5.10069 13.7832 4.8655 13.6571 4.69037C13.5616 4.55773 13.3951 4.41178 13 4.41178C12.6049 4.41178 12.4384 4.55773 12.3429 4.69037Z" fill="#808080"/>
<path fill-rule="evenodd" clip-rule="evenodd" d="M9.66602 14.4124C9.66602 13.9522 10.0391 13.5791 10.4993 13.5791H12.166C12.6263 13.5791 12.9993 13.9522 12.9993 14.4124C12.9993 14.8727 12.6263 15.2458 12.166 15.2458H10.4993C10.0391 15.2458 9.66602 14.8727 9.66602 14.4124Z" fill="#808080"/>
<path fill-rule="evenodd" clip-rule="evenodd" d="M9.66602 11.9124C9.66602 11.4522 10.0391 11.0791 10.4993 11.0791H15.4993C15.9596 11.0791 16.3327 11.4522 16.3327 11.9124C16.3327 12.3727 15.9596 12.7458 15.4993 12.7458H10.4993C10.0391 12.7458 9.66602 12.3727 9.66602 11.9124Z" fill="#808080"/>
<path fill-rule="evenodd" clip-rule="evenodd" d="M9.66602 9.41244C9.66602 8.9522 10.0391 8.5791 10.4993 8.5791H15.4993C15.9596 8.5791 16.3327 8.9522 16.3327 9.41244C16.3327 9.87267 15.9596 10.2458 15.4993 10.2458H10.4993C10.0391 10.2458 9.66602 9.87267 9.66602 9.41244Z" fill="#808080"/>
<path fill-rule="evenodd" clip-rule="evenodd" d="M6.33398 7.74512C6.33398 6.36441 7.45327 5.24512 8.83398 5.24512H17.1673C18.548 5.24512 19.6673 6.36441 19.6673 7.74512V16.9118C19.6673 18.2925 18.548 19.4118 17.1673 19.4118H8.83398C7.45327 19.4118 6.33398 18.2925 6.33398 16.9118V7.74512ZM8.83398 6.91178C8.37375 6.91178 8.00065 7.28488 8.00065 7.74512V16.9118C8.00065 17.372 8.37375 17.7451 8.83398 17.7451H17.1673C17.6276 17.7451 18.0006 17.372 18.0006 16.9118V7.74512C18.0006 7.28488 17.6276 6.91178 17.1673 6.91178H8.83398Z" fill="#808080"/>
</svg>
