<svg width="16" height="16" viewBox="0 0 16 16" fill="none" xmlns="http://www.w3.org/2000/svg">
<g clip-path="url(#clip0_1_2)">
<path d="M15.5232 8.94116H8.54412L13.1921 13.5891C13.3697 13.7667 13.6621 13.7811 13.8447 13.6091C14.9829 12.5367 15.7659 11.0912 15.9956 9.46616C16.035 9.18792 15.8041 8.94116 15.5232 8.94116V8.94116ZM15.0576 7.03528C14.8153 3.52176 12.0076 0.714117 8.49412 0.471765C8.22588 0.453235 8 0.679411 8 0.948234V7.5294H14.5815C14.8503 7.5294 15.0762 7.30352 15.0576 7.03528ZM6.58823 8.94116V1.96206C6.58823 1.68117 6.34147 1.45029 6.06353 1.4897C2.55853 1.985 -0.120589 5.04705 0.00411708 8.71675C0.132352 12.4856 3.37735 15.5761 7.14794 15.5288C8.63029 15.5103 10 15.0326 11.1262 14.2338C11.3585 14.0691 11.3738 13.727 11.1724 13.5256L6.58823 8.94116Z" fill="#808080"/>
</g>
<defs>
<clipPath id="clip0_1_2">
<rect width="16" height="16" fill="white"/>
</clipPath>
</defs>
</svg>
