<svg width="14" height="17" viewBox="0 0 14 17" fill="none" xmlns="http://www.w3.org/2000/svg">
<g clip-path="url(#clip0_2240_3284)">
<path fill-rule="evenodd" clip-rule="evenodd" d="M12.6628 5.51098C12.8906 5.75868 12.8906 6.16028 12.6628 6.40798L5.07947 14.6535C4.97008 14.7725 4.8217 14.8393 4.66699 14.8393L2.33366 14.8393C2.17895 14.8393 2.03057 14.7725 1.92118 14.6535C1.81178 14.5346 1.75032 14.3732 1.75032 14.205L1.75033 11.6679C1.75033 11.4997 1.81178 11.3384 1.92118 11.2194L9.50451 2.97389C9.73232 2.72619 10.1017 2.72619 10.3295 2.97389C10.5573 3.22159 10.5573 3.62319 10.3295 3.87089L2.91699 11.9307L2.91699 13.5707L4.42537 13.5707L11.8378 5.51098C12.0657 5.26328 12.435 5.26328 12.6628 5.51098Z" fill="#808080"/>
<path fill-rule="evenodd" clip-rule="evenodd" d="M9.50451 2.97389C9.73232 2.72619 10.1017 2.72619 10.3295 2.97389L12.6628 5.51098C12.8906 5.75868 12.8906 6.16028 12.6628 6.40797C12.435 6.65567 12.0657 6.65567 11.8378 6.40797L9.50451 3.87089C9.27671 3.62319 9.27671 3.22159 9.50451 2.97389Z" fill="#808080"/>
<path fill-rule="evenodd" clip-rule="evenodd" d="M10.0875 8.31104L7.75414 5.77395L8.5791 4.87695L10.9124 7.41404L10.0875 8.31104Z" fill="#808080"/>
</g>
<defs>
<clipPath id="clip0_2240_3284">
<rect width="14" height="15.2225" fill="white" transform="translate(0 0.884766)"/>
</clipPath>
</defs>
</svg>
