<svg width="16" height="16" viewBox="0 0 16 16" fill="none" xmlns="http://www.w3.org/2000/svg">
<path d="M7.99966 3.33334C5.42632 3.33334 3.33301 5.42691 3.33301 8C3.33301 10.5731 5.42632 12.6667 7.99966 12.6667C10.573 12.6667 12.6663 10.5731 12.6663 8C12.6663 5.42691 10.573 3.33334 7.99966 3.33334Z" fill="#808080"/>
<path d="M8 0C3.58853 0 0 3.58887 0 8C0 12.4111 3.58853 16 8 16C12.4115 16 16 12.4111 16 8C16 3.58887 12.4115 0 8 0ZM8 14C4.69141 14 2 11.3083 2 8C2 4.69172 4.69141 2 8 2C11.3086 2 14 4.69172 14 8C14 11.3083 11.3086 14 8 14Z" fill="#808080"/>
</svg>
