<svg width="18" height="18" viewBox="0 0 18 18" fill="none" xmlns="http://www.w3.org/2000/svg">
<g clip-path="url(#clip0_810_274)">
<path d="M9.00009 5.05371L10.9786 6.09398L10.6007 3.89081L12.2023 2.32993L9.98941 2.00858L9.00009 0L8.01077 2.00858L5.79785 2.32993L7.39952 3.89081L7.02159 6.09398L9.00009 5.05371Z" fill="#808080"/>
<path d="M15.6846 5.59439L14.6953 3.58966L13.706 5.59439L11.4941 5.91574L13.0947 7.47621L12.7168 9.67979L14.6953 8.63953L16.6749 9.67979L16.2959 7.47621L18.0001 5.91574L15.6846 5.59439Z" fill="#808080"/>
<path d="M1.70425 7.47621L1.32523 9.67979L3.30482 8.63953L5.28333 9.67979L4.9054 7.47621L6.50597 5.91574L4.29414 5.59439L3.30482 3.58966L2.31551 5.59439L0 5.91574L1.70425 7.47621Z" fill="#808080"/>
<path d="M11.6367 10.0547C11.6367 8.60092 10.4538 7.41797 9 7.41797C7.54623 7.41797 6.36328 8.60092 6.36328 10.0547C6.36328 11.5085 7.54623 12.6914 9 12.6914C10.4538 12.6914 11.6367 11.5085 11.6367 10.0547Z" fill="#808080"/>
<path d="M5.30859 16.3828V18H12.6914V16.3828C12.6914 14.3476 11.0352 12.6914 9 12.6914C6.96478 12.6914 5.30859 14.3476 5.30859 16.3828Z" fill="#808080"/>
<path d="M16.9101 17.4375C16.9101 15.9837 15.7271 14.8008 14.2734 14.8008C14.0006 14.8008 13.7427 14.8543 13.4951 14.9315C13.6444 15.3918 13.746 15.8735 13.746 16.3828V18H16.9101V17.4375Z" fill="#808080"/>
<path d="M16.3828 12.6914C16.3828 11.5281 15.4368 10.582 14.2734 10.582C13.1101 10.582 12.1641 11.5281 12.1641 12.6914C12.1641 12.7586 12.1777 12.822 12.1838 12.8875C12.7039 13.3616 13.1233 13.9401 13.3927 14.6019C13.6616 14.7265 13.9581 14.8008 14.2734 14.8008C15.4368 14.8008 16.3828 13.8547 16.3828 12.6914Z" fill="#808080"/>
<path d="M5.81616 12.8875C5.82234 12.822 5.83594 12.7586 5.83594 12.6914C5.83594 11.5281 4.88988 10.582 3.72656 10.582C2.56325 10.582 1.61719 11.5281 1.61719 12.6914C1.61719 13.8547 2.56325 14.8008 3.72656 14.8008C4.04187 14.8008 4.33836 14.7265 4.60725 14.6021C4.87669 13.9401 5.2961 13.3616 5.81616 12.8875Z" fill="#808080"/>
<path d="M1.08984 17.4375V18H4.25391V16.3828C4.25391 15.8735 4.35553 15.3918 4.50481 14.9315C4.2572 14.8543 3.9993 14.8008 3.72656 14.8008C2.2728 14.8008 1.08984 15.9837 1.08984 17.4375Z" fill="#808080"/>
</g>
<defs>
<clipPath id="clip0_810_274">
<rect width="18" height="18" fill="white"/>
</clipPath>
</defs>
</svg>
