<svg width="17" height="19" viewBox="0 0 17 19" fill="none" xmlns="http://www.w3.org/2000/svg">
<path fill-rule="evenodd" clip-rule="evenodd" d="M8.83638 16.4307L13.9084 10.8055V2.477C13.9075 1.93483 13.7091 1.41512 13.3565 1.03175C13.0039 0.648369 12.5259 0.432575 12.0273 0.431641H1.88109C1.38246 0.432575 0.904495 0.648369 0.551908 1.03175C0.199321 1.41512 0.000858973 1.93483 0 2.477V14.3853C0.000858973 14.9275 0.199321 15.4472 0.551908 15.8306C0.904495 16.2139 1.38246 16.4297 1.88109 16.4307H8.83638ZM11.1696 3.04928H2.73554C2.6063 3.04928 2.48234 3.1051 2.39095 3.20448C2.29956 3.30385 2.24821 3.43863 2.24821 3.57916C2.24821 3.7197 2.29956 3.85448 2.39095 3.95385C2.48234 4.05322 2.6063 4.10905 2.73554 4.10905H11.1696C11.2988 4.10905 11.4228 4.05322 11.5142 3.95385C11.6056 3.85448 11.6569 3.7197 11.6569 3.57916C11.6569 3.43863 11.6056 3.30385 11.5142 3.20448C11.4228 3.1051 11.2988 3.04928 11.1696 3.04928ZM11.1696 6.28511H2.73554C2.6063 6.28511 2.48234 6.34094 2.39095 6.44032C2.29956 6.53969 2.24821 6.67447 2.24821 6.815C2.24821 6.95554 2.29956 7.09031 2.39095 7.18969C2.48234 7.28906 2.6063 7.34489 2.73554 7.34489H11.1696C11.2988 7.34489 11.4228 7.28906 11.5142 7.18969C11.6056 7.09031 11.6569 6.95554 11.6569 6.815C11.6569 6.67447 11.6056 6.53969 11.5142 6.44032C11.4228 6.34094 11.2988 6.28511 11.1696 6.28511ZM11.1696 9.51742H2.73554C2.6063 9.51742 2.48234 9.57325 2.39095 9.67262C2.29956 9.77199 2.24821 9.90677 2.24821 10.0473C2.24821 10.1878 2.29956 10.3226 2.39095 10.422C2.48234 10.5214 2.6063 10.5772 2.73554 10.5772H11.1696C11.2988 10.5772 11.4228 10.5214 11.5142 10.422C11.6056 10.3226 11.6569 10.1878 11.6569 10.0473C11.6569 9.90677 11.6056 9.77199 11.5142 9.67262C11.4228 9.57325 11.2988 9.51742 11.1696 9.51742ZM2.73554 13.813H8.80767C8.93692 13.813 9.06087 13.7572 9.15226 13.6578C9.24366 13.5585 9.295 13.4237 9.295 13.2831C9.295 13.1426 9.24366 13.0078 9.15226 12.9085C9.06087 12.8091 8.93692 12.7533 8.80767 12.7533H2.73554C2.6063 12.7533 2.48234 12.8091 2.39095 12.9085C2.29956 13.0078 2.24821 13.1426 2.24821 13.2831C2.24821 13.4237 2.29956 13.5585 2.39095 13.6578C2.48234 13.7572 2.6063 13.813 2.73554 13.813Z" fill="#808080"/>
<path fill-rule="evenodd" clip-rule="evenodd" d="M14.6611 11.3047L16.0948 12.8947L15.1994 13.8878L13.7658 12.2977L14.6611 11.3047ZM13.4025 12.6926L14.8396 14.2864L11.7945 17.6637L10 18.0601L10.3573 16.0699L13.4025 12.6926Z" fill="#808080"/>
</svg>
