<svg width="16" height="16" viewBox="0 0 16 16" fill="none" xmlns="http://www.w3.org/2000/svg">
<g clip-path="url(#clip0_810_245)">
<path d="M14.3356 13.1942L13.6212 4.19075C13.5768 3.61065 13.0861 3.15643 12.5044 3.15643H11.093V5.24759C11.093 5.50656 10.8834 5.71618 10.6244 5.71618C10.3658 5.71618 10.1558 5.50656 10.1558 5.24759V3.15643H5.84487V5.24759C5.84487 5.50656 5.63493 5.71618 5.37628 5.71618C5.11731 5.71618 4.90768 5.50656 4.90768 5.24759V3.15643H3.49631C2.91465 3.15643 2.42387 3.61065 2.37953 4.1895L1.66478 13.1954C1.6095 13.9167 1.85971 14.6346 2.35109 15.165C2.8425 15.6954 3.53912 16 4.26231 16H11.7384C12.4616 16 13.1582 15.6954 13.6497 15.165C14.141 14.6346 14.3912 13.9167 14.3356 13.1942ZM10.1115 8.60918L7.68797 11.0327C7.59643 11.1242 7.47647 11.1702 7.35653 11.1702C7.23656 11.1702 7.11662 11.1242 7.02509 11.0327L5.88925 9.89687C5.70618 9.71381 5.70618 9.41734 5.88925 9.23428C6.07231 9.05121 6.36909 9.05121 6.55184 9.23428L7.35656 10.0387L9.44893 7.94631C9.63168 7.76356 9.92847 7.76356 10.1115 7.94631C10.2946 8.12937 10.2946 8.42612 10.1115 8.60918Z" fill="#808080"/>
<path d="M7.99988 0C6.29454 0 4.90723 1.38762 4.90723 3.09297V3.15637H5.84441V3.09297C5.84441 1.90431 6.81126 0.937156 7.99991 0.937156C9.18857 0.937156 10.1554 1.90431 10.1554 3.09297V3.15637H11.0926V3.09297C11.0925 1.38762 9.70523 0 7.99988 0Z" fill="#808080"/>
</g>
<defs>
<clipPath id="clip0_810_245">
<rect width="16" height="16" fill="white"/>
</clipPath>
</defs>
</svg>
