<svg width="16" height="16" viewBox="0 0 16 16" fill="none" xmlns="http://www.w3.org/2000/svg">
<g clip-path="url(#clip0_1_4)">
<path d="M4.79861 2.81017L5.13002 2.47877C5.34595 2.26283 5.30036 1.90174 5.03983 1.74542L2.52906 0.238899C1.86987 -0.155693 1.03125 -0.0526935 0.489722 0.490211C-0.0531818 1.03268 -0.156181 1.8713 0.238411 2.52955L1.7449 5.03991C1.9014 5.30075 2.26428 5.34597 2.47825 5.1301L2.81012 4.79869L5.34617 7.33087L7.33244 5.34441L4.79861 2.81017Z" fill="#808080"/>
<path d="M15.6814 1.86673C15.5437 1.57783 15.1573 1.50589 14.927 1.73717L13.7144 2.94979C13.5367 3.12742 13.2292 3.12742 13.0515 2.94979C12.8689 2.76714 12.8689 2.46961 13.0515 2.28695L14.2641 1.07433C14.4922 0.846238 14.4267 0.459177 14.1346 0.319928C12.8817 -0.27882 11.3812 -0.0211022 10.3997 0.961238C9.49835 1.86211 9.20723 3.20107 9.62835 4.38348L4.38403 9.62761C3.20253 9.20646 1.86313 9.49761 0.96179 10.399C-0.0201124 11.3809 -0.27783 12.8819 0.32048 14.1338C0.460073 14.4267 0.847384 14.4909 1.07488 14.2634L2.2875 13.0508C2.4706 12.8686 2.76816 12.8681 2.95035 13.0513C3.13294 13.2329 3.13428 13.5287 2.95035 13.7136L1.73772 14.9262C1.50963 15.1543 1.57516 15.5414 1.86729 15.6807C2.31722 15.8957 2.79925 16.0001 3.27806 16.0001C4.13134 16.0001 4.97315 15.6682 5.60165 15.0393C6.50343 14.1384 6.79411 12.7994 6.37299 11.617L11.6174 6.37297C12.7984 6.79365 14.1383 6.50297 15.0401 5.60163C16.022 4.61972 16.2797 3.11873 15.6814 1.86673Z" fill="#808080"/>
<path d="M15.308 12.0363C13.7168 10.4509 12.8444 9.82106 10.9791 8.3704L8.32812 11.0216C9.63931 12.7048 10.4333 13.7904 11.9224 15.28C12.4094 15.767 13.0567 15.9943 13.6934 15.9943C14.1608 15.9943 14.6223 15.8833 15.01 15.6045C15.5753 15.1971 15.9314 14.5695 15.9868 13.8834C16.0422 13.1963 15.795 12.5233 15.308 12.0363ZM13.9578 13.9597C13.7712 14.1297 13.4804 14.1134 13.3019 13.9349L11.4455 12.0785C11.267 11.9 11.2507 11.6092 11.4207 11.4226C11.6022 11.2234 11.9107 11.218 12.099 11.4064L13.974 13.2814C14.1624 13.4698 14.157 13.7783 13.9578 13.9597Z" fill="#808080"/>
</g>
<defs>
<clipPath id="clip0_1_4">
<rect width="16" height="16" fill="white"/>
</clipPath>
</defs>
</svg>
