<svg width="24" height="24" viewBox="0 0 24 24" fill="none" xmlns="http://www.w3.org/2000/svg">
<path fill-rule="evenodd" clip-rule="evenodd" d="M4.66602 9.50033C4.66602 6.27866 7.27769 3.66699 10.4993 3.66699H17.166C17.6263 3.66699 17.9993 4.04009 17.9993 4.50033C17.9993 4.96056 17.6263 5.33366 17.166 5.33366H10.4993C8.19816 5.33366 6.33268 7.19914 6.33268 9.50033V16.167C6.33268 16.6272 5.95959 17.0003 5.49935 17.0003C5.03911 17.0003 4.66602 16.6272 4.66602 16.167V9.50033Z" fill="#808080"/>
<path fill-rule="evenodd" clip-rule="evenodd" d="M8 11.1667C8 8.86548 9.86548 7 12.1667 7H17.1667C19.4679 7 21.3333 8.86548 21.3333 11.1667V16.1667C21.3333 18.4679 19.4679 20.3333 17.1667 20.3333H12.1667C9.86548 20.3333 8 18.4679 8 16.1667V11.1667ZM12.1667 8.66667C10.786 8.66667 9.66667 9.78595 9.66667 11.1667V16.1667C9.66667 17.5474 10.786 18.6667 12.1667 18.6667H17.1667C18.5474 18.6667 19.6667 17.5474 19.6667 16.1667V11.1667C19.6667 9.78595 18.5474 8.66667 17.1667 8.66667H12.1667Z" fill="#808080"/>
</svg>
