<svg width="24" height="25" viewBox="0 0 24 25" fill="none" xmlns="http://www.w3.org/2000/svg">
<path fill-rule="evenodd" clip-rule="evenodd" d="M13.8333 8.15918C14.2936 8.15918 14.6667 8.53228 14.6667 8.99251V12.3258C14.6667 12.7861 14.2936 13.1592 13.8333 13.1592H11.3333C10.8731 13.1592 10.5 12.7861 10.5 12.3258C10.5 11.8656 10.8731 11.4925 11.3333 11.4925H13V8.99251C13 8.53228 13.3731 8.15918 13.8333 8.15918Z" fill="#808080"/>
<path fill-rule="evenodd" clip-rule="evenodd" d="M12.9993 4.82585C9.31745 4.82585 6.33268 7.81061 6.33268 11.4925C6.33268 15.1744 9.31745 18.1592 12.9993 18.1592C16.6812 18.1592 19.666 15.1744 19.666 11.4925C19.666 7.81061 16.6812 4.82585 12.9993 4.82585ZM4.66602 11.4925C4.66602 6.89014 8.39698 3.15918 12.9993 3.15918C17.6017 3.15918 21.3327 6.89014 21.3327 11.4925C21.3327 16.0949 17.6017 19.8258 12.9993 19.8258C8.39698 19.8258 4.66602 16.0949 4.66602 11.4925Z" fill="#808080"/>
</svg>
