<svg width="16" height="16" viewBox="0 0 16 16" fill="none" xmlns="http://www.w3.org/2000/svg">
<path d="M13.8461 11.8461C13.3901 11.8461 12.9635 11.6218 12.7052 11.246L12.0276 10.2604C11.2294 11.6915 9.71216 12.6154 8.00001 12.6154C5.61089 12.6154 3.63989 10.7905 3.40752 8.46155H3.84617C4.01755 8.46155 4.17486 8.36658 4.25464 8.21487C4.33442 8.06318 4.32358 7.87974 4.22648 7.73852L3.55367 6.7599L2.53418 5.27697C2.44811 5.15175 2.30586 5.0769 2.15386 5.0769C2.13486 5.0769 2.11602 5.07806 2.09739 5.08034C2.07877 5.08262 2.06043 5.08606 2.0424 5.09053C1.99733 5.10175 1.95433 5.11965 1.91486 5.14356C1.85961 5.177 1.81118 5.22215 1.77352 5.27694L0.0812115 7.73849C-0.015882 7.87971 -0.0267257 8.06318 0.0530553 8.21483C0.132836 8.36649 0.290149 8.46155 0.461555 8.46155H0.937804C1.04762 10.1781 1.76865 11.7769 2.99589 13.0042C4.33255 14.3408 6.1097 15.0769 8.00001 15.0769C9.89032 15.0769 11.6675 14.3408 13.0041 13.0042C13.3595 12.6488 13.6741 12.259 13.9443 11.8424C13.9117 11.8446 13.879 11.8461 13.8461 11.8461Z" fill="#808080"/>
<path d="M8.35158 7.53846H7.6483C7.51499 7.53846 7.40655 7.43002 7.40655 7.29671V6.94506C7.40655 6.81177 7.51499 6.70334 7.6483 6.70334H8.35158C8.4849 6.70334 8.59333 6.81177 8.59333 6.94506C8.59333 7.19996 8.79999 7.40659 9.05486 7.40659C9.30974 7.40659 9.51639 7.19993 9.51639 6.94506C9.51639 6.33987 9.05239 5.84115 8.46143 5.78559V5.5385C8.46143 5.28359 8.25477 5.07697 7.9999 5.07697C7.74499 5.07697 7.53837 5.28362 7.53837 5.5385V5.78559C6.94743 5.84115 6.4834 6.33987 6.4834 6.94506V7.29671C6.4834 7.93902 7.00593 8.46155 7.64824 8.46155H8.35152C8.48483 8.46155 8.59327 8.56999 8.59327 8.7033V9.05496C8.59327 9.18824 8.4848 9.29671 8.35152 9.29671H7.64824C7.51493 9.29671 7.40649 9.18827 7.40649 9.05499C7.40649 8.80008 7.19983 8.59346 6.94496 8.59346C6.69009 8.59346 6.48343 8.80012 6.48343 9.05499C6.48343 9.66018 6.94743 10.1589 7.5384 10.2145V10.4615C7.5384 10.7164 7.74505 10.923 7.99993 10.923C8.25483 10.923 8.46146 10.7164 8.46146 10.4615V10.2144C9.05236 10.1589 9.51643 9.66014 9.51643 9.05496V8.7033C9.51639 8.06099 8.9939 7.53846 8.35158 7.53846Z" fill="#808080"/>
<path d="M15.9469 7.78514C15.867 7.63346 15.7098 7.53846 15.5384 7.53846H15.0621C14.9523 5.82187 14.2313 4.22312 13.004 2.99584C11.6674 1.65922 9.89021 0.923096 7.99994 0.923096C6.10966 0.923096 4.33244 1.65922 2.99582 2.99587C2.64048 3.35122 2.32582 3.74103 2.05566 4.15768C2.0882 4.15537 2.12088 4.15387 2.15379 4.15387C2.60988 4.15387 3.03641 4.37824 3.29476 4.75406L3.97232 5.73962C4.77047 4.30853 6.28775 3.38465 7.9999 3.38465C10.389 3.38465 12.36 5.20952 12.5924 7.53849H12.1537C11.9824 7.53849 11.8251 7.63346 11.7453 7.78517C11.6655 7.93686 11.6763 8.1203 11.7734 8.26152L12.4462 9.24014L13.4657 10.7231C13.4873 10.7544 13.5123 10.7825 13.5401 10.8072C13.6235 10.881 13.7321 10.9231 13.8461 10.9231C13.998 10.9231 14.1403 10.8483 14.2264 10.7231L14.8375 9.83423L15.9187 8.26155C16.0158 8.12024 16.0266 7.9368 15.9469 7.78514Z" fill="#808080"/>
</svg>
