<svg width="32" height="31" viewBox="0 0 32 31" fill="none" xmlns="http://www.w3.org/2000/svg">
<g clip-path="url(#clip0_2240_1888)">
<path d="M15.9988 0C7.49159 0 0.570312 6.87855 0.570312 15.3333C0.570312 23.7874 7.49159 30.6666 15.9988 30.6666C24.5055 30.6666 31.4274 23.7874 31.4274 15.3333C31.4274 6.87855 24.5067 0 15.9988 0ZM22.8816 11.8239C22.8884 11.9758 22.8921 12.129 22.8921 12.2822C22.8921 16.9459 19.3212 22.3218 12.7877 22.3218C10.7823 22.3218 8.91536 21.7393 7.3443 20.7375C7.62209 20.7703 7.90486 20.787 8.19136 20.787C9.85564 20.787 11.3863 20.2224 12.6019 19.2762C11.0482 19.2478 9.73632 18.2275 9.28452 16.8249C9.50079 16.8656 9.72389 16.8885 9.95197 16.8885C10.2758 16.8885 10.5902 16.8465 10.8879 16.7656C9.26339 16.4419 8.03972 15.0158 8.03972 13.305C8.03972 13.2902 8.03972 13.2747 8.04034 13.2605C8.51887 13.5242 9.06638 13.6836 9.64807 13.7015C8.69599 13.0697 8.06893 11.9888 8.06893 10.7647C8.06893 10.1174 8.24356 9.51088 8.54932 8.9896C10.3 11.1254 12.9176 12.5299 15.8683 12.6781C15.8074 12.4193 15.777 12.1506 15.777 11.8733C15.777 9.9247 17.3667 8.34418 19.3274 8.34418C20.3491 8.34418 21.2707 8.77282 21.9196 9.45839C22.7293 9.30027 23.4875 9.00752 24.1755 8.60173C23.9082 9.42627 23.3471 10.1174 22.6119 10.5547C23.3309 10.4694 24.017 10.2805 24.6515 9.99943C24.178 10.706 23.5758 11.328 22.8816 11.8239Z" fill="#808080"/>
</g>
<defs>
<clipPath id="clip0_2240_1888">
<rect width="30.8571" height="30.6666" fill="white" transform="translate(0.570312)"/>
</clipPath>
</defs>
</svg>
