<svg width="38" height="38" viewBox="0 0 38 38" fill="none" xmlns="http://www.w3.org/2000/svg">
<path d="M17.4168 1.5835C13.9377 1.5835 11.0835 4.43772 11.0835 7.91683V27.7085C11.0835 32.499 15.0013 36.4168 19.7918 36.4168C24.5823 36.4168 28.5002 32.499 28.5002 27.7085V9.50016H25.3335V27.7085C25.3335 30.7872 22.8705 33.2502 19.7918 33.2502C16.7132 33.2502 14.2502 30.7872 14.2502 27.7085V7.91683C14.2502 6.14877 15.6488 4.75016 17.4168 4.75016C19.1849 4.75016 20.5835 6.14877 20.5835 7.91683V24.5418C20.5835 24.9961 20.2461 25.3335 19.7918 25.3335C19.3375 25.3335 19.0002 24.9961 19.0002 24.5418V9.50016H15.8335V24.5418C15.8335 26.7095 17.6241 28.5002 19.7918 28.5002C21.9595 28.5002 23.7502 26.7095 23.7502 24.5418V7.91683C23.7502 4.43772 20.8959 1.5835 17.4168 1.5835Z" fill="#808080"/>
</svg>
