<svg width="16" height="16" viewBox="0 0 16 16" fill="none" xmlns="http://www.w3.org/2000/svg">
<g clip-path="url(#clip0_810_310)">
<path d="M3.73943 3.2442L10.1179 1.50315L9.78008 0.820388C9.55908 0.376592 9.02006 0.193324 8.57626 0.414324L2.86621 3.2442H3.73943Z" fill="#808080"/>
<path d="M12.0971 1.55346C12.0181 1.55346 11.939 1.56424 11.8599 1.5858L10.3615 1.99546L5.78516 3.2442H10.9795H13.2434L12.9631 2.21646C12.8553 1.81578 12.4924 1.55346 12.0971 1.55346Z" fill="#808080"/>
<path d="M14.1799 3.87305H13.9751H13.6966H13.4181H11.2925H3.48209H2.45795H1.59551H1.4356H0.900169C0.616283 3.87305 0.362942 4.00422 0.197642 4.21084C0.122179 4.30607 0.0646828 4.41567 0.0323414 4.53605C0.0125772 4.61152 0 4.69057 0 4.77143V4.87923V5.90337V14.7811C0 15.277 0.402471 15.6795 0.898372 15.6795H14.1781C14.674 15.6795 15.0765 15.277 15.0765 14.7811V12.2746H9.74554C8.90287 12.2746 8.21831 11.5901 8.21831 10.7474V9.92449V9.64599V9.3675V8.74942C8.21831 8.33617 8.38359 7.96066 8.65132 7.68576C8.88849 7.44139 9.20651 7.27609 9.56227 7.23476C9.62156 7.22759 9.68265 7.22398 9.74374 7.22398H14.329H14.6075H14.886H15.0765V4.77143C15.0783 4.27553 14.6758 3.87305 14.1799 3.87305Z" fill="#808080"/>
<path d="M15.7076 8.08283C15.6178 8.00018 15.5118 7.93729 15.3932 7.89597C15.3015 7.86544 15.2045 7.84747 15.1021 7.84747H15.0788H15.0608H14.7823H13.7779H9.74603C9.25011 7.84747 8.84766 8.24993 8.84766 8.74584V9.19322V9.47171V9.75021V10.7456C8.84766 11.2415 9.25011 11.644 9.74603 11.644H15.0788H15.1021C15.2045 11.644 15.3016 11.626 15.3932 11.5955C15.5118 11.5559 15.6178 11.4913 15.7076 11.4086C15.8873 11.2451 16.0005 11.0079 16.0005 10.7456V8.74584C16.0005 8.4835 15.8873 8.24631 15.7076 8.08283ZM11.6218 9.92449C11.6218 10.1724 11.4206 10.3737 11.1726 10.3737H10.8744C10.6264 10.3737 10.4252 10.1724 10.4252 9.92449V9.62623C10.4252 9.48249 10.4917 9.35491 10.5977 9.27405C10.6749 9.21476 10.7702 9.17705 10.8744 9.17705H10.9498H11.1726C11.4206 9.17705 11.6218 9.37826 11.6218 9.62623V9.92449Z" fill="#808080"/>
</g>
<defs>
<clipPath id="clip0_810_310">
<rect width="16" height="16" fill="white"/>
</clipPath>
</defs>
</svg>
