<svg width="16" height="16" viewBox="0 0 16 16" fill="none" xmlns="http://www.w3.org/2000/svg">
<path d="M3.80048 16L12.7606 15.9967L14.2361 2.1891L1.78264 2.22478L3.80048 16ZM8.09416 6.8275C10.2328 6.8039 11.8976 7.8227 11.8109 9.10608C11.7275 10.3895 10.1054 11.439 8.18967 11.4505C6.27393 11.4621 4.61015 10.4416 4.47182 9.1703C4.33349 7.90064 5.95555 6.8511 8.09416 6.8275ZM15.8482 0V5.1714H14.7504V1.09785H1.25019V5.1714H0.152344V0H15.8482ZM9.73105 9.30479L8.47621 9.31577L8.47237 9.43598C8.44217 9.83505 8.33733 10.1051 8.15893 10.2456C7.98218 10.3873 7.65557 10.4603 7.17526 10.463C6.65982 10.4669 6.29424 10.3922 6.07412 10.2445C5.85291 10.0936 5.7283 9.82901 5.69701 9.45135L5.68494 9.34212L5.12449 9.3476L5.09045 8.98751L5.65584 8.98257L5.65255 8.88102C5.62126 8.50391 5.7058 8.23878 5.90396 8.08344C6.10376 7.92809 6.4688 7.8474 6.99192 7.84301H7.16922L7.19228 8.37766L7.10335 8.37876C6.78717 8.38315 6.58572 8.41499 6.49679 8.47976C6.41061 8.54179 6.37219 8.68176 6.38646 8.89749L6.38756 8.97763L7.75767 8.9661C7.74559 8.54343 7.83726 8.2558 8.03048 8.09826C8.22645 7.94456 8.59917 7.86167 9.14699 7.85673C9.6789 7.85234 10.0406 7.92535 10.2322 8.0785C10.4232 8.23219 10.5078 8.52038 10.4946 8.94195L10.9864 8.93701L10.9683 9.2982L10.4803 9.30369C10.4677 9.7044 10.3678 9.98106 10.1845 10.132C10.0044 10.2808 9.67176 10.3582 9.1931 10.3615L9.08167 10.3626L9.08332 9.84438L9.17279 9.84218C9.53947 9.83779 9.72446 9.69123 9.73105 9.39591V9.30479ZM9.74202 8.94195L9.73983 8.8651C9.74587 8.54618 9.54551 8.38974 9.13876 8.39358C8.71444 8.39797 8.50256 8.5588 8.50695 8.87389C8.5075 8.87718 8.5042 8.90298 8.49981 8.95348L9.74202 8.94195ZM6.41061 9.33278L6.41555 9.41018C6.43696 9.75326 6.67739 9.92452 7.13684 9.92013C7.38879 9.91958 7.55402 9.87951 7.63087 9.80101C7.71046 9.72417 7.74449 9.56553 7.73736 9.32345L6.41061 9.33278Z" fill="#808080"/>
</svg>
